<svg width="112" height="18" viewBox="0 0 112 18" fill="none" xmlns="http://www.w3.org/2000/svg">
<path d="M17.4127 0H0V3.57085H17.4127V0Z" fill="#FCB53B"/>
<path d="M17.4127 7.21411H0V10.785H17.4127V7.21411Z" fill="#F57F29"/>
<path d="M17.4127 14.429H0V17.9998H17.4127V14.429Z" fill="#E32213"/>
<path d="M24.3914 0V18H38.7022V14.4291H27.8457V10.7854H38.7022V7.21457H27.8457V3.57085H38.7022V0H24.3914Z" fill="black"/>
<path fill-rule="evenodd" clip-rule="evenodd" d="M82.4107 0L75.7135 18H79.7318L81.0712 14.3563H89.1783L90.5178 17.9271H94.4656L87.3454 0H82.4107ZM85.0895 3.57085L87.8389 10.7854H82.3402L85.0895 3.57085Z" fill="black"/>
<path d="M96.8626 17.9997V14.2831H106.168C107.085 14.2831 107.86 13.4815 107.86 12.5341C107.86 11.5867 107.085 10.7851 106.168 10.7851H98.625V7.21426H106.168C107.085 7.21426 107.86 6.41264 107.86 5.46527C107.86 4.51791 107.085 3.71629 106.168 3.71629H96.8626V0.0725619H106.309C109.129 0.0725619 111.526 2.47742 111.526 5.3924C111.526 6.77701 111.244 7.94301 109.411 9.03612C111.032 9.91062 111.526 11.2952 111.526 12.6798C111.526 16.0321 109.129 17.9997 106.309 17.9997H96.8626Z" fill="black"/>
<path fill-rule="evenodd" clip-rule="evenodd" d="M70.9193 0H61.3317V18H64.7861V10.7854H70.9193C73.8096 10.7854 76.136 8.38057 76.136 5.39271C76.136 2.40486 73.8096 0 70.9193 0ZM70.7783 7.21457H64.7861V3.64372H70.7783C71.6947 3.64372 72.4702 4.44534 72.4702 5.39271C72.4702 6.41296 71.6947 7.21457 70.7783 7.21457Z" fill="black"/>
<path fill-rule="evenodd" clip-rule="evenodd" d="M57.5958 5.31984C57.5958 6.70445 57.3138 7.87044 55.4809 8.96356C57.1023 9.91093 57.7368 11.2955 57.8073 12.6802C57.8073 16.0324 55.4104 18 52.5905 18H42.862V0H52.379C55.1989 0 57.5958 2.40486 57.5958 5.31984ZM52.1675 3.64372H46.3163V7.1417H52.1675C53.084 7.1417 53.8595 6.34008 53.8595 5.39271C53.8595 4.44534 53.084 3.64372 52.1675 3.64372ZM46.3163 14.3563H52.379C53.366 14.3563 54.1414 13.5547 54.0709 12.5344C54.0709 11.587 53.2955 10.7854 52.379 10.7854H46.3163V14.3563Z" fill="black"/>
</svg>
