<svg width="260" height="138" viewBox="0 0 260 138" fill="none" xmlns="http://www.w3.org/2000/svg">
<rect x="1" y="1" width="258" height="136" rx="5" fill="#EFF2F6"/>
<rect x="170" y="18" width="60" height="50" rx="3.50693" fill="#677272"/>
<path d="M167 31H170V57L167 53.1825V31Z" fill="#3B4848"/>
<path d="M233 57L230 57L230 31L233 34.8175L233 57Z" fill="#3B4848"/>
<rect x="79" y="31" width="61" height="51" rx="4.54549" fill="#677272"/>
<path d="M82.5 33L83.145 33.3828L83.799 33.75L83.79 34.5L83.799 35.25L83.145 35.6172L82.5 36L81.855 35.6172L81.201 35.25L81.21 34.5L81.201 33.75L81.855 33.3828L82.5 33Z" fill="#8D9595"/>
<path d="M82.5 77.0251L83.145 77.408L83.799 77.7751L83.79 78.5251L83.799 79.2751L83.145 79.6423L82.5 80.0251L81.855 79.6423L81.201 79.2751L81.21 78.5251L81.201 77.7751L81.855 77.408L82.5 77.0251Z" fill="#8D9595"/>
<path d="M82.5 54.5127L83.145 54.8955L83.799 55.2627L83.79 56.0127L83.799 56.7627L83.145 57.1299L82.5 57.5127L81.855 57.1299L81.201 56.7627L81.21 56.0127L81.201 55.2627L81.855 54.8955L82.5 54.5127Z" fill="#8D9595"/>
<path d="M136.5 33L137.145 33.3828L137.799 33.75L137.79 34.5L137.799 35.25L137.145 35.6172L136.5 36L135.855 35.6172L135.201 35.25L135.21 34.5L135.201 33.75L135.855 33.3828L136.5 33Z" fill="#8D9595"/>
<path d="M136.5 77.0251L137.145 77.408L137.799 77.7751L137.79 78.5251L137.799 79.2751L137.145 79.6423L136.5 80.0251L135.855 79.6423L135.201 79.2751L135.21 78.5251L135.201 77.7751L135.855 77.408L136.5 77.0251Z" fill="#8D9595"/>
<path d="M136.5 54.5127L137.145 54.8955L137.799 55.2627L137.79 56.0127L137.799 56.7627L137.145 57.1299L136.5 57.5127L135.855 57.1299L135.201 56.7627L135.21 56.0127L135.201 55.2627L135.855 54.8955L136.5 54.5127Z" fill="#8D9595"/>
<path d="M109.827 33L110.472 33.3828L111.126 33.75L111.117 34.5L111.126 35.25L110.472 35.6172L109.827 36L109.182 35.6172L108.528 35.25L108.537 34.5L108.528 33.75L109.182 33.3828L109.827 33Z" fill="#8D9595"/>
<path d="M109.827 77.0251L110.472 77.408L111.126 77.7751L111.117 78.5251L111.126 79.2751L110.472 79.6423L109.827 80.0251L109.182 79.6423L108.528 79.2751L108.537 78.5251L108.528 77.7751L109.182 77.408L109.827 77.0251Z" fill="#8D9595"/>
<mask id="path-14-inside-1_2940_1565" fill="white">
<rect x="86.9999" y="39" width="21" height="16" rx="0.757583"/>
</mask>
<rect id="Bearing-4" x="86.9999" y="39" width="21" height="16" rx="0.757583" fill="#414F4F" stroke="#8D9595" stroke-width="2" mask="url(#path-14-inside-1_2940_1565)"/>
<mask id="path-15-inside-2_2940_1565" fill="white">
<rect x="86.9999" y="58" width="21" height="16" rx="0.757583"/>
</mask>
<rect id="Bearing-6" x="86.9999" y="58" width="21" height="16" rx="0.757583" fill="#414F4F" stroke="#8D9595" stroke-width="2" mask="url(#path-15-inside-2_2940_1565)"/>
<mask id="path-16-inside-3_2940_1565" fill="white">
<rect x="111" y="39" width="21" height="16" rx="0.757583"/>
</mask>
<rect id="Bearing-3" x="111" y="39" width="21" height="16" rx="0.757583" fill="#414F4F" stroke="#8D9595" stroke-width="2" mask="url(#path-16-inside-3_2940_1565)"/>
<mask id="path-17-inside-4_2940_1565" fill="white">
<rect x="111" y="58" width="21" height="16" rx="0.757583"/>
</mask>
<rect id="Bearing-5" x="111" y="58" width="21" height="16" rx="0.757583" fill="#414F4F" stroke="#8D9595" stroke-width="2" mask="url(#path-17-inside-4_2940_1565)"/>
<rect x="10" y="56" width="16" height="28" rx="2.27275" fill="#677272"/>
<path d="M12.5 57.2949L13.145 57.6777L13.799 58.0449L13.79 58.7949L13.799 59.5449L13.145 59.9121L12.5 60.2949L11.855 59.9121L11.201 59.5449L11.21 58.7949L11.201 58.0449L11.855 57.6777L12.5 57.2949Z" fill="#8D9595"/>
<path d="M12.5 80.2526L13.145 80.6354L13.799 81.0026L13.79 81.7526L13.799 82.5026L13.145 82.8697L12.5 83.2526L11.855 82.8697L11.201 82.5026L11.21 81.7526L11.201 81.0026L11.855 80.6354L12.5 80.2526Z" fill="#8D9595"/>
<path d="M23.5 57.2526L24.145 57.6354L24.799 58.0026L24.79 58.7526L24.799 59.5026L24.145 59.8697L23.5 60.2526L22.855 59.8697L22.201 59.5026L22.21 58.7526L22.201 58.0026L22.855 57.6354L23.5 57.2526Z" fill="#8D9595"/>
<path d="M23.5 80.2526L24.145 80.6354L24.799 81.0026L24.79 81.7526L24.799 82.5026L24.145 82.8697L23.5 83.2526L22.855 82.8697L22.201 82.5026L22.21 81.7526L22.201 81.0026L22.855 80.6354L23.5 80.2526Z" fill="#8D9595"/>
<path d="M14.0001 66H29.0001V76H14.0001V66Z" fill="#3B4848"/>
<mask id="path-24-inside-5_2940_1565" fill="white">
<rect x="13.0001" y="61" width="10" height="10" rx="0.757583"/>
</mask>
<rect id="Bearing-9" x="13.0001" y="61" width="10" height="10" rx="0.757583" fill="#414F4F" stroke="#8D9595" stroke-width="2" mask="url(#path-24-inside-5_2940_1565)"/>
<mask id="path-25-inside-6_2940_1565" fill="white">
<rect x="13" y="70" width="10" height="10" rx="0.757583"/>
</mask>
<rect id="Bearing-8" x="13" y="70" width="10" height="10" rx="0.757583" fill="#414F4F" stroke="#8D9595" stroke-width="2" mask="url(#path-25-inside-6_2940_1565)"/>
<rect x="55" y="56" width="16" height="28" rx="2.27275" fill="#677272"/>
<path d="M57.5 57.2949L58.145 57.6777L58.799 58.0449L58.79 58.7949L58.799 59.5449L58.145 59.9121L57.5 60.2949L56.855 59.9121L56.201 59.5449L56.21 58.7949L56.201 58.0449L56.855 57.6777L57.5 57.2949Z" fill="#8D9595"/>
<path d="M57.5 80.2526L58.145 80.6354L58.799 81.0026L58.79 81.7526L58.799 82.5026L58.145 82.8697L57.5 83.2526L56.855 82.8697L56.201 82.5026L56.21 81.7526L56.201 81.0026L56.855 80.6354L57.5 80.2526Z" fill="#8D9595"/>
<path d="M68.5 57.2526L69.145 57.6354L69.799 58.0026L69.79 58.7526L69.799 59.5026L69.145 59.8697L68.5 60.2526L67.855 59.8697L67.201 59.5026L67.21 58.7526L67.201 58.0026L67.855 57.6354L68.5 57.2526Z" fill="#8D9595"/>
<path d="M68.5 80.2526L69.145 80.6354L69.799 81.0026L69.79 81.7526L69.799 82.5026L69.145 82.8697L68.5 83.2526L67.855 82.8697L67.201 82.5026L67.21 81.7526L67.201 81.0026L67.855 80.6354L68.5 80.2526Z" fill="#8D9595"/>
<path d="M53 66H79V76H53V66Z" fill="#3B4848"/>
<mask id="path-32-inside-7_2940_1565" fill="white">
<rect x="58" y="61" width="10" height="18" rx="0.757583"/>
</mask>
<rect id="Bearing-7" x="58" y="61" width="10" height="18" rx="0.757583" fill="#414F4F" stroke="#8D9595" stroke-width="2" mask="url(#path-32-inside-7_2940_1565)"/>
<rect x="150" y="29" width="16" height="28" rx="2.27275" fill="#677272"/>
<path d="M152.5 30.2949L153.145 30.6777L153.799 31.0449L153.79 31.7949L153.799 32.5449L153.145 32.9121L152.5 33.2949L151.855 32.9121L151.201 32.5449L151.21 31.7949L151.201 31.0449L151.855 30.6777L152.5 30.2949Z" fill="#8D9595"/>
<path d="M152.5 53.2526L153.145 53.6354L153.799 54.0026L153.79 54.7526L153.799 55.5026L153.145 55.8697L152.5 56.2526L151.855 55.8697L151.201 55.5026L151.21 54.7526L151.201 54.0026L151.855 53.6354L152.5 53.2526Z" fill="#8D9595"/>
<path d="M163.5 30.2526L164.145 30.6354L164.799 31.0026L164.79 31.7526L164.799 32.5026L164.145 32.8697L163.5 33.2526L162.855 32.8697L162.201 32.5026L162.21 31.7526L162.201 31.0026L162.855 30.6354L163.5 30.2526Z" fill="#8D9595"/>
<path d="M163.5 53.2526L164.145 53.6354L164.799 54.0026L164.79 54.7526L164.799 55.5026L164.145 55.8697L163.5 56.2526L162.855 55.8697L162.201 55.5026L162.21 54.7526L162.201 54.0026L162.855 53.6354L163.5 53.2526Z" fill="#8D9595"/>
<path d="M140 39H167V49H140V39Z" fill="#3B4848"/>
<mask id="path-39-inside-8_2940_1565" fill="white">
<rect x="153" y="34" width="10" height="18" rx="0.757583"/>
</mask>
<rect id="Bearing-2" x="153" y="34" width="10" height="18" rx="0.757583" fill="#414F4F" stroke="#8D9595" stroke-width="2" mask="url(#path-39-inside-8_2940_1565)"/>
<rect x="234" y="29" width="16" height="28" rx="2.27275" fill="#677272"/>
<path d="M236.5 30.2949L237.145 30.6777L237.799 31.0449L237.79 31.7949L237.799 32.5449L237.145 32.9121L236.5 33.2949L235.855 32.9121L235.201 32.5449L235.21 31.7949L235.201 31.0449L235.855 30.6777L236.5 30.2949Z" fill="#8D9595"/>
<path d="M236.5 53.2526L237.145 53.6354L237.799 54.0026L237.79 54.7526L237.799 55.5026L237.145 55.8697L236.5 56.2526L235.855 55.8697L235.201 55.5026L235.21 54.7526L235.201 54.0026L235.855 53.6354L236.5 53.2526Z" fill="#8D9595"/>
<path d="M247.5 30.2526L248.145 30.6354L248.799 31.0026L248.79 31.7526L248.799 32.5026L248.145 32.8697L247.5 33.2526L246.855 32.8697L246.201 32.5026L246.21 31.7526L246.201 31.0026L246.855 30.6354L247.5 30.2526Z" fill="#8D9595"/>
<path d="M247.5 53.2526L248.145 53.6354L248.799 54.0026L248.79 54.7526L248.799 55.5026L248.145 55.8697L247.5 56.2526L246.855 55.8697L246.201 55.5026L246.21 54.7526L246.201 54.0026L246.855 53.6354L247.5 53.2526Z" fill="#8D9595"/>
<path d="M231 39H247V49H231V39Z" fill="#3B4848"/>
<mask id="path-46-inside-9_2940_1565" fill="white">
<rect x="237" y="34" width="10" height="18" rx="0.757583"/>
</mask>
<rect id="Bearing-1" x="237" y="34" width="10" height="18" rx="0.757583" fill="#414F4F" stroke="#8D9595" stroke-width="2" mask="url(#path-46-inside-9_2940_1565)"/>
<rect x="29.526" y="41.526" width="22.9479" height="54.9479" fill="#8D9595" stroke="#677272" stroke-width="1.05208"/>
<rect x="29.274" y="43.437" width="23.0458" height="1.40277" fill="#677272"/>
<rect x="29.274" y="49.0482" width="23.0458" height="1.40277" fill="#677272"/>
<rect x="29.274" y="54.6593" width="23.0458" height="1.40277" fill="#677272"/>
<rect x="29.274" y="60.2704" width="23.0458" height="1.40277" fill="#677272"/>
<rect x="29.274" y="65.8815" width="23.0458" height="1.40277" fill="#677272"/>
<rect x="29.274" y="71.4924" width="23.0458" height="1.40277" fill="#677272"/>
<rect x="29.274" y="77.1038" width="23.0458" height="1.40277" fill="#677272"/>
<rect x="29.274" y="82.7148" width="23.0458" height="1.40277" fill="#677272"/>
<rect x="29.274" y="88.3259" width="23.0458" height="1.40277" fill="#677272"/>
<rect x="29.274" y="93.937" width="23.0458" height="1.40277" fill="#677272"/>
<path d="M11.9398 20.0396L29.0001 41H53.0001L70.4463 20.0396V10H11.9398V20.0396Z" fill="#677272"/>
<path d="M70.0001 118.13L53.0001 97L28.9475 97L12.0001 118.13L12.0001 128L70.0001 128L70.0001 118.13Z" fill="#677272"/>
<rect x="1" y="1" width="258" height="136" rx="5" stroke="#CED7E7" stroke-width="2"/>
</svg>
